<?xml version="1.0" encoding="utf-8"?>
<!-- Generator: Adobe Illustrator 18.0.0, SVG Export Plug-In . SVG Version: 6.00 Build 0)  -->
<!DOCTYPE svg PUBLIC "-//W3C//DTD SVG 1.1//EN" "http://www.w3.org/Graphics/SVG/1.1/DTD/svg11.dtd">
<svg version="1.1" id="Слой_1" xmlns="http://www.w3.org/2000/svg" xmlns:xlink="http://www.w3.org/1999/xlink" x="0px" y="0px"
	 viewBox="250 -230.8 774 998.8" enable-background="new 250 -230.8 774 998.8" xml:space="preserve">

<style>
    path {
        fill: #000000;
    }
    @media (prefers-color-scheme: dark) {
        path {
            fill: #ffffff;
        }
    }
</style>

<path      d="
	M1015.7-189l-10.2-28.9c-10.2-25,1.7,32.3,1.7,32.3c3.4,30.1-3.4,39.1-3.4,39.1c-13.6-48.2-48.8-65.2-48.8-65.2
	c-20.4-5.7-5.1,3.4-5.1,3.4c7.4,1.7,34,40.3,34.6,42.5c0.6,2.3,6.2,23.3,6.2,23.3c8.5,28.9-4,53.9-4,53.9
	c-5.7,8.5-19.9,33.5-19.9,33.5c-8.5,14.8-18.7,12.5-18.7,12.5l-13-15.9c1.7-7.9-22.1-56.2-22.1-56.2c-4-18.7-15.9-34.6-15.9-34.6
	c-6.8-6.8-13-18.2-13-18.2c-11.3-26.7-7.1-2.8-7.1-2.8c2,11.3,15.1,30.6,15.1,30.6c3.4,3.4,13,32.3,13,32.3l13,37.6
	c-2.8,17.2-25.5,7.8-25.5,7.8c-19.9-9.1-35.7-7.8-35.7-7.8c-9.6,3-15.3-8.1-15.3-8.1c-8.5-11.3-5.7,0.6-5.7,0.6
	c4,12,13,14.7,13,14.7c10.8-0.6,31.2,7.4,31.2,7.4c11.3,5.1,39.7,14.8,39.7,14.8c19.8,6.8,14.8,12.5,14.8,12.5
	c-9.1,1.1-32.3,22.1-32.3,22.1c-13.6,11.3-15.9-6.8-15.9-6.8c-7.4-21.6-5.1,23.1-5.1,23.1l-17.5,18.2h-20c5.7-12.2-11.9-26-11.9-26
	l-2.7-18.3c-3.8-13-3.9,4.3-3.9,4.3c-0.3,15.3-5.9,12.9-6.5,7.8c-0.6-5.1,10.3-82.3,10.3-82.3l20.8-26.7
	c13.6-15.9,18.6-53.9,18.6-53.9c-0.8-14.7-5.4-1.8-5.4-1.8l-13.6,37.4c-4.5,5.1-20.3,25-20.3,25c-13.4,16.5-28-10.8-28-10.8
	c-15.3-24.4-23.3-58.4-23.3-58.4c-1.7-11.9-4.5,0-4.5,0c-4.5,41.4,35.2,86.2,35.2,86.2c2.3,1.1-2.3,63.1-2.3,63.1
	C801.3,0,783.1-4.7,783.1-4.7c-26.7-1.7-42-25.5-42-25.5c-14.2-13.6-30.5-64.9-30.5-64.9c-7.5-14.5,0.5-45.2,0.5-45.2
	c2.8-17-3.4-4.5-3.4-4.5l-8.5,27.2c-11.3,30.6,28.9,90.8,28.9,90.8c9.1,11.9,1.7,14.2,1.7,14.2c-43.7-0.6-56.7-42.5-56.7-42.5
	c-5.1-13.6-5.1,0-5.1,0s8.5,43.1,47.1,50.5c0,0,32.3,9.1,36.3,9.1c0,0,7.9,24.4,11.3,28.9c0,0,5.1,21.6,31.2,35.7
	c0,0-20.4,30.1-36.3,36.3c0,0-12.5,6.8-11.3,13c0,0-7.4,4-4.5,7.9c0,0-7.4,17,7.9,19.9c0,0,0,13.6,21.6,13.6c0,0,15.9-6.2,40.3-4
	l13.6,6.8c0,0-2.3,23.3,4,32.9c0,0,1.5,2.3-4.4,5.7c0,0-21.7,8.5-28.5,14.7c-6.8,6.2-21,1.1-29.5,7.4c0,0-57.3,2.8-72,0
	c0,0-88.5-6.2-98.1-4c0,0-30.6-9.6-57.3,1.2c0,0-10.8,5.3-26.7,4.1c0,0-72.6,15.8-87.4,56.6c0,0-7.9,28.9-24.4,35.7
	c0,0,17.6,8.5,21.6,2.8c0,0-6.2,26.1-2.8,43.7c0,0,7.4,48.8-10,83.2c0,0-9.3,29.7-59.8,61.5c0,0-15.3,4.5-18.2,26.1
	c0,0-13.6,44.2-19.9,55c-6.2,10.8-30.6,59-36.3,77.7l-17,39.7c0,0-6.1,10.6,0,13.9c0,0-10.1,21.6,7.2,31.6l9.8,5.5l4.4-6.5l3.1,6.5
	c0,0,11.2-7.6,9.8-21.8v-13.6c0,0-0.4,1.7,1.6-9.3c8.8-49.5,54.4-118.6,54.4-118.6c13.6-19.3,42.8-45.4,42.8-45.4
	c17.6-10.8,81.8-63.5,81.8-63.5c30.1-10.2,48.8-32.3,48.8-32.3s-1.7,33.5-45.3,70.3c0,0-25.7,13.3-11,32c0,0,39.4,90.5,45,96.2
	c0,0,17.5,46.5,21.5,46.5c0,0,8.2-9.2,13.6,14.7c0,0,0,24,41.4,22.9l9.8,0c0,0-0.8-15.8-20.5-29.2l-8-7.9
	c-13-8.5-44.8-104.4-44.8-104.4c-11.9-32.9,22.7-54.5,22.7-54.5c31.8-20.4,74.9-72.6,74.9-72.6c13.6-19.9,23.8-14.2,23.8-14.2
	c9.6,4.6,40.3,12.5,40.3,12.5c33.1,14.5,62.1,10,62.1,10c16.6-2.4,22.9-1.5,22.9-1.5s10.6,51.5,19.2,77.1c0,0,8.5,24.4,8.5,31.8
	c0,0-1.1,19,4,28c0,0,7.9,52.7,6.8,76.6l-2.9,35c0,0-0.8,12.2,5.1,13.7c0,0-3.5,25,17.1,29.2l9.5,2.6l0.9-7.7l5.2,5.4
	c0,0,6.5-10.9,0-24.5l-5-13.5c0,0-0.1,2-2.7-9.4l-3.4-26.8c-1.7-14.2-3.1-79.1-3.1-79.1c9.4-17.8-2.2-41-2.2-41
	c-0.6-13.6,1.6-47.4,1.6-47.4c1-27.8-4-58.4-4-58.4s12.7,1.7,20.8,0v2.3c0,0,2.9,16.2-4.5,107c0,0-5.7,26.9-2.3,36.5l-0.4,76.2
	l0.5,12.8c-5.3,12,0.1,15.5,0.1,15.5s0.8,0.4,1.9-0.1c2.4-1,6.6-0.6,9.7,15.5c0,0,0,24.9,35.2,23.6h8.3c0,0-0.7-16.4-17.4-29.8
	l-6.8-8.3c-0.3-4.9-8.3-32.7-8.3-32.7s-1.4-60.6,2.5-73.6c0,0,4-12.6,4-22.2c0,0,14.2-47.7,16.5-63c0,0,5.1-19.3,10.8-32.4
	c0,0,15.9-31.8,17-45.4c0,0,23.5-42,35.4-48.2c0,0,7.9-9.1,10.8-18.2c0,0,13-26.7,11.3-40.8c0,0,5.4-43.7-1.9-47.7
	c0,0,16.5-49.3,0.6-93.6c0,0,1.7-65.8-40.3-120.8c0,0,5.1-13.6,13.6-17.6c0,0,28.4-15.3,31.2-37.4c0,0,6.2-14.2,5.7-23.8
	c0,0,2.8-17-5.1-20.4c0,0-7.4-3.4-14.7,7.4c0,0-24.4,7.9-31.2,23.8c0,0-9.6,6.2-13,16.5c0,0-5.7,15.3-26.1,9.1c0,0-6.2-2.8,8.5-13.6
	c0,0,21.6-17,27.8-24.4c0,0,17.6-12.5,24.4-15.9l13-11.3l21-25.5c17.6-19.9,20.2-37.4,20.2-37.4c0.6-8.5,11.6-45.4,11.6-45.4
	C1021.9-168,1015.7-189,1015.7-189z M822.8,28.8l-16.5-14.2c5.7-1.7,16.5,2.3,16.5,2.3C828.5,26,822.8,28.8,822.8,28.8z"/>
</svg>
